<svg width="381" height="271" viewBox="0 0 381 271" fill="none" xmlns="http://www.w3.org/2000/svg">
<circle cx="190.515" cy="135.5" r="135.5" fill="url(#paint0_linear)"/>
<path d="M7.84144 192.642C25.9554 181.231 48.301 163.64 69.7091 161.524C87.7152 159.745 104.433 175.524 122.456 166.384C129.703 162.708 134.293 154.295 139.431 148.384C143.681 143.493 150.229 143.949 156.493 143.573C159.422 143.396 161.963 144.702 164.537 145.903C169.124 148.043 175.179 147.537 180.138 148.269C189.479 149.647 200.139 147.074 209.535 146.145C225.554 144.563 239.381 132.311 255.259 142.322C261.063 145.982 275.926 143.926 281.19 140.281C293.547 131.725 301.187 121.54 310.319 109.967C318.09 100.119 328.407 101.581 340.283 100.408C350.83 99.3658 382.471 96.2393 371.924 97.2815" stroke="black" stroke-width="3" stroke-linecap="round" stroke-linejoin="round"/>
<defs>
<linearGradient id="paint0_linear" x1="251.015" y1="10.5" x2="117.515" y2="251.5" gradientUnits="userSpaceOnUse">
<stop stop-color="#FE634E"/>
<stop offset="1" stop-color="#FF005C" stop-opacity="0.35"/>
</linearGradient>
</defs>
</svg>
